<?xml version="1.0" standalone="no"?><!DOCTYPE svg PUBLIC "-//W3C//DTD SVG 1.1//EN" "http://www.w3.org/Graphics/SVG/1.1/DTD/svg11.dtd"><svg width="25" height="25" viewBox="0 0 25 25" version="1.1" xmlns="http://www.w3.org/2000/svg" xmlns:xlink="http://www.w3.org/1999/xlink"><defs><style type="text/css"><![CDATA[

]]></style></defs><g class="transform-group"><g transform="scale(0.0244140625, 0.0244140625)"><path d="M931.47163 539.136034 931.47163 539.136034 931.47163 539.136034l-55.9288 0 0 0c-15.45704 0-27.965935-12.153808-27.965935-27.101241 0-15.006785 12.506848-27.122731 27.965935-27.122731l0 0 55.9288 0 0 0 0 0c15.45704 0 27.962865 12.115945 27.962865 27.122731C959.434495 526.982226 946.927647 539.136034 931.47163 539.136034zM819.609936 213.805504l0-27.122731 55.93187-54.226019 27.965935 27.111474 0 27.114544-55.93187 54.231135L819.609936 213.805504zM693.77295 616.316857c-4.154623 2.38635-8.766664 4.154623-13.984503 4.154623-15.45704 0-27.965935-12.150738-27.965935-27.111474 0-14.982226 12.508895-27.114544 27.965935-27.114544l0-1.375324c31.897478-6.277984 55.9288-33.624818 55.9288-66.396199 0-32.81436-24.031323-60.134589-55.9288-66.409502l0-1.37737c-15.45704 0-27.965935-12.150738-27.965935-27.111474 0-14.982226 12.508895-27.109428 27.965935-27.109428 5.217838 0 9.829879 1.743714 13.984503 4.148483 55.872518 12.392238 97.874121 59.925834 97.874121 117.859291C791.647071 556.393069 749.645468 603.926666 693.77295 616.316857zM567.929824 891.588271c0 0-26.490328 0.997724-42.410925-9.800203l-265.200034-179.982164 0 0L120.497375 701.805904c-30.886451 0-55.93187-24.272823-55.93187-54.226019l0-271.114744c0-29.942963 25.042349-54.226019 55.93187-54.226019l139.821489 0 265.200034-179.982164c9.829879-6.667863 20.072151-9.800203 32.060183-9.800203 0 0 66.279542-4.279467 66.279542 54.226019L623.858624 837.364299C623.859647 867.307262 598.816275 891.588271 567.929824 891.588271zM567.929824 240.914932c0-56.477292-27.965935-27.109428-27.965935-27.109428L288.284799 376.465141l-139.824559 0 0 0 0 0 0 0 0 0c-15.45704 0-27.962865 12.127202-27.962865 27.109428l0 216.896912c0 14.957667 12.506848 27.109428 27.962865 27.109428l0 0 0 0 139.824559 0 251.680113 162.67294c0 0 27.965935 23.719214 27.965935 0C567.929824 786.522354 567.929824 240.914932 567.929824 240.914932zM903.505695 837.364299l0 27.111474-27.962865 27.111474-55.93187-54.223972 0-27.111474 27.965935-27.122731L903.505695 837.364299z" fill="#fd4c5d"></path></g></g></svg>